<svg width="48" height="48" viewBox="0 0 48 48" fill="none" xmlns="http://www.w3.org/2000/svg">
<path d="M12 1H36C42.0751 1 47 5.92487 47 12V36C47 42.0751 42.0751 47 36 47H12C5.92487 47 1 42.0751 1 36V12C1 5.92487 5.92487 1 12 1Z" fill="white"/>
<path d="M12 1H36C42.0751 1 47 5.92487 47 12V36C47 42.0751 42.0751 47 36 47H12C5.92487 47 1 42.0751 1 36V12C1 5.92487 5.92487 1 12 1Z" stroke="#DDDEE1" stroke-width="2"/>
<path d="M23.9839 10C16.2614 10 10 12.6359 10 15.8873C10 16.041 10.0202 16.2078 10.0492 16.3782L12.5165 29.3154C13.5666 34.8199 18.3801 38.801 23.983 38.801C29.5858 38.801 34.3993 34.819 35.4495 29.3154L37.9168 16.3782C37.9458 16.2078 37.966 16.0419 37.966 15.8873C37.966 12.6359 31.7055 10 23.9821 10H23.9839ZM23.9839 31.4201C19.9439 31.4201 20.282 22.0363 15.7565 20.6481C15.3798 20.5322 15.0207 20.4076 14.673 20.2776C17.1456 19.3477 20.4067 18.7814 23.9839 18.7814C27.5611 18.7814 30.8221 19.3477 33.2947 20.2776C32.9479 20.4084 32.5888 20.5331 32.2112 20.6481C27.6857 22.0363 28.0229 31.4201 23.9839 31.4201Z" fill="#1868DB"/>
</svg>
