<svg width="41" height="41" xmlns="http://www.w3.org/2000/svg" xmlns:xlink="http://www.w3.org/1999/xlink" xml:space="preserve" overflow="hidden"><g transform="translate(-328 -148)"><g><path d="M364.9 168.5C364.9 177.557 357.557 184.9 348.5 184.9 339.443 184.9 332.1 177.557 332.1 168.5 332.1 159.443 339.443 152.1 348.5 152.1 357.557 152.1 364.9 159.443 364.9 168.5Z" fill="#000000" fill-rule="nonzero" fill-opacity="1"/><path d="M354.854 162.732C357.933 162.732 360.427 165.315 360.427 168.504 360.427 171.691 357.933 174.277 354.854 174.277L342.569 174.277C342.13 174.277 341.774 173.908 341.774 173.453 341.774 172.998 342.13 172.629 342.569 172.629L345.431 172.629C345.869 172.629 346.225 172.261 346.225 171.806 346.225 171.351 345.869 170.982 345.431 170.982L344.794 170.982C344.355 170.982 343.999 170.613 343.999 170.158 343.999 169.703 344.355 169.335 344.794 169.335L346.703 169.335C347.145 169.333 347.488 168.96 347.499 168.511 347.499 168.056 347.143 167.687 346.703 167.687L340.023 167.687C339.583 167.687 339.227 167.318 339.227 166.863 339.227 166.408 339.583 166.04 340.023 166.04L344.953 166.04C345.394 166.038 345.737 165.665 345.748 165.216 345.748 164.761 345.392 164.392 344.953 164.392L343.841 164.392C343.402 164.392 343.046 164.023 343.046 163.568 343.046 163.113 343.402 162.723 343.841 162.723L354.854 162.732ZM353.963 164.655C352.251 164.655 350.867 166.091 350.867 167.862L350.867 169.145C350.867 170.917 352.251 172.351 353.963 172.351 355.672 172.351 357.058 170.917 357.058 169.145L357.058 167.862C357.058 166.091 355.672 164.655 353.963 164.655ZM355.02 167.687C355.433 167.687 355.768 168.034 355.768 168.461L355.768 168.56C355.768 168.987 355.433 169.335 355.02 169.335L352.697 169.335C352.285 169.335 351.95 168.987 351.95 168.56L351.95 168.461C351.95 168.034 352.285 167.687 352.697 167.687L355.02 167.687Z" fill="#FFFFFF" fill-rule="nonzero" fill-opacity="1"/><path d="M340.071 172.629C340.485 172.629 340.818 172.974 340.818 173.404L340.818 173.503C340.818 173.93 340.485 174.277 340.071 174.277L337.32 174.277C336.908 174.277 336.573 173.93 336.573 173.503L336.573 173.404C336.573 172.974 336.908 172.629 337.32 172.629L340.071 172.629Z" fill="#FFFFFF" fill-rule="nonzero" fill-opacity="1"/><path d="M341.345 162.745C341.757 162.745 342.09 163.092 342.09 163.519L342.09 163.62C342.09 164.047 341.757 164.392 341.345 164.392L338.274 164.392C337.862 164.392 337.527 164.047 337.527 163.62L337.527 163.519C337.527 163.092 337.862 162.745 338.274 162.745L341.345 162.745Z" fill="#FFFFFF" fill-rule="nonzero" fill-opacity="1"/><path d="M342.298 169.335C342.71 169.335 343.046 169.682 343.046 170.109L343.046 170.208C343.046 170.635 342.71 170.982 342.298 170.982L340.612 170.982C340.2 170.982 339.865 170.635 339.865 170.208L339.865 170.109C339.865 169.682 340.2 169.335 340.612 169.335L342.298 169.335Z" fill="#FFFFFF" fill-rule="nonzero" fill-opacity="1"/></g></g></svg>