<?xml version="1.0" encoding="UTF-8"?>
<svg id="_Слой_1" data-name="Слой_1" xmlns="http://www.w3.org/2000/svg" xmlns:xlink="http://www.w3.org/1999/xlink" version="1.1" viewBox="0 0 40 40">
  <!-- Generator: Adobe Illustrator 29.0.1, SVG Export Plug-In . SVG Version: 2.1.0 Build 192)  -->
  <defs>
    
    <linearGradient id="_Безымянный_градиент" data-name="Безымянный градиент" x1="18.8" y1="35.9" x2="20" y2="4.3" gradientTransform="translate(0 39.9) scale(1 -1)" gradientUnits="userSpaceOnUse">
      <stop offset="0" stop-color="#02c786"/>
      <stop offset="1" stop-color="#178e82"/>
    </linearGradient>
    <linearGradient id="_Безымянный_градиент_2" data-name="Безымянный градиент 2" x1="3.3" y1="22.1" x2="31.9" y2="8.5" gradientTransform="translate(0 39.9) scale(1 -1)" gradientUnits="userSpaceOnUse">
      <stop offset="0" stop-color="#03c947"/>
      <stop offset="1" stop-color="#028ba0"/>
    </linearGradient>
    <linearGradient id="_Безымянный_градиент_3" data-name="Безымянный градиент 3" x1="11.1" y1="33.2" x2="36.7" y2="17.5" gradientTransform="translate(0 39.9) scale(1 -1)" gradientUnits="userSpaceOnUse">
      <stop offset="0" stop-color="#03c947"/>
      <stop offset="1" stop-color="#028ba0"/>
    </linearGradient>
    <linearGradient id="_Безымянный_градиент_4" data-name="Безымянный градиент 4" x1="19.4" y1="35.9" x2="21.1" y2="5.3" gradientTransform="translate(0 39.9) scale(1 -1)" gradientUnits="userSpaceOnUse">
      <stop offset="0" stop-color="#02c786"/>
      <stop offset="1" stop-color="#178e82"/>
    </linearGradient>
  </defs>
  <path fill="url(#_Безымянный_градиент)" d="M19.6,39.2c-.7,0-1.3,0-2-.3-3.2-.8-5.7-3.4-6.3-6.6-.2-1.1.6-2.2,1.7-2.5,1.1-.2,2.2.6,2.5,1.7.3,1.6,1.5,2.9,3.2,3.3,2.3.6,4.6-.9,5.1-3.1.3-1.1,0-2.3-.5-3.2-.6-.9-1.5-1.6-2.7-1.9s-1.8-1.4-1.5-2.6c.3-1.1,1.4-1.8,2.6-1.5,4.6,1.1,7.3,5.7,6.2,10.1-1,4-4.6,6.5-8.3,6.5Z"/>
  <path fill="url(#_Безымянный_градиент_2)" d="M8.5,28.1c-.7,0-1.3,0-2-.3C2,26.6-.8,22.1.4,17.6c.8-3.2,3.4-5.7,6.6-6.3,1.1-.2,2.2.6,2.5,1.7.2,1.1-.6,2.2-1.7,2.5-1.6.3-2.9,1.5-3.3,3.2-.7,2.2.8,4.5,3,5,1.1.3,2.3,0,3.2-.5.9-.6,1.6-1.5,1.9-2.7.3-1.1,1.4-1.8,2.6-1.5,1.1.3,1.8,1.4,1.5,2.6-.6,2.2-1.9,4.1-3.8,5.2-1.3.8-2.8,1.1-4.4,1.1Z"/>
  <path fill="url(#_Безымянный_градиент_3)" d="M30.7,11.2c.7,0,1.3,0,2,.3,4.6,1.1,7.3,5.7,6.2,10.1-.8,3.2-3.4,5.7-6.6,6.3-1.1.2-2.2-.6-2.5-1.7-.2-1.1.6-2.2,1.7-2.5,1.6-.3,2.9-1.5,3.3-3.2.7-2.2-.8-4.5-3-5-1.1-.3-2.3,0-3.2.5-.9.6-1.6,1.5-1.9,2.7-.3,1.1-1.4,1.8-2.6,1.5-1.1-.3-1.8-1.4-1.5-2.6.6-2.2,1.9-4.1,3.8-5.2,1.3-.8,2.8-1.1,4.4-1.1Z"/>
  <path fill="url(#_Безымянный_градиент_4)" d="M11.2,8.5c0-.7,0-1.3.3-2C12.7,2,17.2-.8,21.7.4c3.2.8,5.7,3.4,6.3,6.6.2,1.1-.6,2.2-1.7,2.5-1.1.2-2.2-.6-2.5-1.7-.3-1.6-1.5-2.9-3.2-3.3-2.2-.7-4.5.8-5,3-.3,1.1,0,2.3.5,3.2.6.9,1.5,1.6,2.7,1.9,1.1.3,1.8,1.4,1.5,2.6-.3,1.1-1.4,1.8-2.6,1.5-2.2-.6-4.1-1.9-5.2-3.8-.8-1.3-1.1-2.8-1.1-4.4Z"/>
</svg>