<svg width="26" height="26" viewBox="0 0 26 26" fill="none" xmlns="http://www.w3.org/2000/svg">
	<path d="M7.58203 17.333V12.308C7.58203 11.7558 7.69065 11.2256 7.89025 10.733M18.4154 17.333V13.883M9.98944 8.37867C10.8501 7.8761 11.8851 7.58301 12.9987 7.58301C15.4682 7.58301 17.5516 9.02451 18.2037 10.9955" stroke="#1a1a1a" stroke-width="1.5" stroke-linecap="round" stroke-linejoin="round" />
	<path d="M10.832 18.4163V16.0585M15.1654 18.4163V12.8403C15.1654 11.7317 14.1953 10.833 12.9987 10.833C11.802 10.833 10.832 11.7317 10.832 12.8403V13.7007" stroke="#1a1a1a" stroke-width="1.5" stroke-linecap="round" stroke-linejoin="round" />
	<path d="M13.0013 23.8337C7.01821 23.8337 2.16797 18.9834 2.16797 13.0003C2.16797 7.01724 7.01821 2.16699 13.0013 2.16699C18.9843 2.16699 23.8346 7.01724 23.8346 13.0003C23.8346 14.1326 23.6609 15.2244 23.3387 16.2503" stroke="#1a1a1a" stroke-width="1.5" stroke-linecap="round" stroke-linejoin="round" />
	<path d="M16.793 22.208L18.9596 24.3747L24.3763 18.958" stroke="#1a1a1a" stroke-width="1.5" stroke-linecap="round" stroke-linejoin="round" />
</svg>