<?xml version="1.0" encoding="UTF-8"?> <svg xmlns="http://www.w3.org/2000/svg" width="59" height="30" viewBox="0 0 59 30" fill="none"> <path d="M0 27.7707V29.9361H1.20772V27.7707H1.98906H3.08961H4.25705H5.29452C5.45793 27.7707 5.61678 27.7502 5.77031 27.713C6.63677 27.4994 7.28357 26.7128 7.28357 25.7832C7.28357 24.6895 6.38823 23.7934 5.29452 23.7934H0V25.0019H1.20772H2.58494H5.29452C5.72091 25.0019 6.07433 25.3545 6.07433 25.7832C6.07433 26.2096 5.72091 26.563 5.29452 26.563H2.58494H1.20772H0L0 27.7707ZM9.357 26.563H8.14851V27.7707V29.9361H9.357V27.7707H10.1383H12.4056L14.1734 29.9361H15.7346L13.9188 27.713C14.786 27.4979 15.4321 26.7128 15.4321 25.7832C15.4321 24.6895 14.5367 23.7934 13.443 23.7934H10.1383H9.357H8.14851V25.0019H9.357H10.7334H13.443C13.8694 25.0019 14.2228 25.3545 14.2228 25.7832C14.2228 26.2096 13.8694 26.563 13.443 26.563H10.7334H9.357ZM21.5817 23.7934H18.9093C17.6416 23.7934 16.6048 24.8309 16.6048 26.0986V27.6309C16.6048 28.8987 17.6416 29.9361 18.9093 29.9361H21.5817C22.851 29.9361 23.8884 28.8987 23.8884 27.6309V26.0986C23.8884 24.8309 22.851 23.7934 21.5817 23.7934ZM18.9093 28.7277C18.3074 28.7277 17.8126 28.2329 17.8126 27.6309V26.0986C17.8126 25.4967 18.3074 25.0019 18.9093 25.0019H21.5817C22.1851 25.0019 22.6784 25.4967 22.6784 26.0986V27.6309C22.6784 28.2329 22.1851 28.7277 21.5817 28.7277H18.9093Z" fill="black"></path> <path d="M26.0473 29.4414L26.4402 28.7611L27.3667 27.1582L28.2917 28.7611L28.6846 29.4414L28.9697 29.9362H29.7556L27.7597 26.4787H26.9722L24.9756 29.9362H25.7607L26.0473 29.4414ZM30.2481 28.717V29.9362H30.9275V28.717H31.3676H31.9871H32.6437H33.2282C33.3202 28.717 33.4099 28.7056 33.4958 28.6844C33.9837 28.5643 34.3478 28.1219 34.3478 27.5983C34.3478 26.9826 33.8439 26.4787 33.2282 26.4787H30.2481V27.1582H30.9275H31.7028H33.2282C33.4684 27.1582 33.6668 27.3573 33.6668 27.5983C33.6668 27.8384 33.4684 28.0376 33.2282 28.0376H31.7028H30.9275H30.2481V28.717ZM37.2732 26.4787H36.8841H34.835V29.9362H36.8841H37.2732H37.6365C38.351 29.9362 38.9347 29.3525 38.9347 28.6388V27.7761C38.9347 27.0624 38.351 26.4787 37.6365 26.4787H37.2732ZM37.2732 29.2559H36.8841H35.5145V27.1582H36.8841H37.2732H37.6365C37.9763 27.1582 38.2537 27.4371 38.2537 27.7761V28.6388C38.2537 28.9777 37.9763 29.2559 37.6365 29.2559H37.2732ZM42.8406 29.2559H40.1014H39.4219V29.9362H43.5216V29.2559H42.8406ZM42.2744 27.8673H39.9896H39.4219V28.5476H42.8406V27.8673H42.2744ZM39.4219 26.4787H43.5216V27.1582H39.4219V26.4787ZM44.0088 29.9362H44.9665L46.1985 28.6904L47.4313 29.9362H48.3882L46.6766 28.2071L48.3882 26.4787H47.4313L46.1985 27.7244L44.9665 26.4787H44.0088L45.7197 28.2071L44.0088 29.9362Z" fill="black"></path> <path fill-rule="evenodd" clip-rule="evenodd" d="M28.1113 0C15.7969 0 5.20332 7.35882 0.483398 17.9182C5.20788 10.0593 13.8162 4.80125 23.6536 4.80125C37.9631 4.80125 49.6717 15.9269 50.6065 30H58.3545C58.2215 13.4088 44.7328 0 28.1113 0Z" fill="url(#paint0_linear_42_4697)"></path> <path fill-rule="evenodd" clip-rule="evenodd" d="M23.1095 7.86346C30.5732 7.86346 37.2404 11.2723 41.6396 16.6185C37.6113 13.1093 32.3464 10.9835 26.5845 10.9835C18.8927 10.9835 12.0865 14.7716 7.92671 20.5829H1.93066C5.96502 13.0151 13.9349 7.86346 23.1095 7.86346Z" fill="url(#paint1_linear_42_4697)"></path> <defs> <linearGradient id="paint0_linear_42_4697" x1="0.480358" y1="30.247" x2="60.9751" y2="30.247" gradientUnits="userSpaceOnUse"> <stop stop-color="#6660FC"></stop> <stop offset="1" stop-color="#7736D1"></stop> </linearGradient> <linearGradient id="paint1_linear_42_4697" x1="1.92858" y1="20.6877" x2="43.4378" y2="20.6877" gradientUnits="userSpaceOnUse"> <stop stop-color="#6660FC"></stop> <stop offset="1" stop-color="#7736D1"></stop> </linearGradient> </defs> </svg> 