<svg width="353" height="281" viewBox="0 0 353 281" fill="none" xmlns="http://www.w3.org/2000/svg">
<path d="M84.168 267.388L60.5068 281L46.9014 257.327L70.5625 243.716L84.168 267.388ZM184.646 261.386L160.984 274.997L147.379 251.325L171.041 237.713L184.646 261.386ZM197.407 13.9256C246.843 -14.6498 310.392 2.09048 339.124 51.8865L339.039 52.2244C368.109 102.612 350.026 165.766 301.097 194.004L197.322 253.945L183.717 230.273L226.73 205.418C219.041 203.727 211.604 201.106 204.421 197.724L96.8447 259.863L83.2383 236.191L179.238 180.73C174.759 176.672 170.703 172.191 166.9 167.288L13.6055 255.805L0 232.134L153.295 143.616C150.929 137.952 149.154 132.118 147.802 126.2L79.4355 165.681L65.8301 142.01L145.773 95.8485C146.365 87.986 147.886 80.2077 150.252 72.6834L44.2812 133.893L30.6758 110.222L197.407 13.9256ZM66.7598 173.291L43.0986 186.902L29.4922 163.23L53.1543 149.619L66.7598 173.291ZM311.321 68.2039C291.547 33.8793 247.604 22.0426 213.21 41.91C178.9 61.6931 167.069 105.656 186.928 140.065C206.787 174.39 250.646 186.226 285.04 166.358C319.349 146.575 331.18 102.613 311.321 68.2039Z" fill="url(#paint0_linear_441_142)"/>
<path d="M283.773 93.2284L251.069 149.873C248.871 153.593 244.899 155.537 240.59 154.945C236.28 154.353 232.984 151.31 231.97 147.167L224.533 117.07L202.224 95.5956C199.097 92.6366 198.168 88.2403 199.773 84.1822C201.379 80.1241 205.097 77.6724 209.407 77.6724H274.73C278.533 77.6724 281.829 79.5323 283.773 82.9141C285.716 86.2113 285.716 90.0158 283.773 93.313V93.2284Z" fill="url(#paint1_linear_441_142)"/>
<defs>
<linearGradient id="paint0_linear_441_142" x1="376.567" y1="26.2053" x2="153.12" y2="252.181" gradientUnits="userSpaceOnUse">
<stop stop-color="#02DFCA"/>
<stop offset="1" stop-color="#01449F"/>
</linearGradient>
<linearGradient id="paint1_linear_441_142" x1="315.733" y1="76.9005" x2="230.954" y2="142.441" gradientUnits="userSpaceOnUse">
<stop stop-color="#02DFCA"/>
<stop offset="1" stop-color="#01449F"/>
</linearGradient>
</defs>
</svg>
