<svg width="166" height="30" viewBox="0 0 166 30" fill="none" xmlns="http://www.w3.org/2000/svg">
<path d="M29.9844 5.50673H19.3835V29.4873H12.8036V5.50673H2.36523V0.595063H29.9844V5.50673Z" fill="#2D5BFF"/>
<path d="M56.483 29.4047H42.6329C40.4937 29.4047 38.4358 28.9094 36.4592 27.9188C34.32 26.8457 32.6818 25.1397 31.5446 22.8008C30.4344 20.4619 29.8793 17.8891 29.8793 15.0824C29.8793 12.3033 30.4209 9.78553 31.504 7.52919C32.6954 5.08023 34.3471 3.29167 36.4592 2.1635C37.6235 1.55813 38.7337 1.13163 39.7897 0.883984C40.8728 0.636336 42.1048 0.512512 43.4858 0.512512H56.3206V5.52973H50.3906H44.4606C43.4046 5.52973 42.511 5.7819 41.7799 6.08458C41.0759 6.35974 40.3719 6.8688 39.6679 7.61174C38.9638 8.35468 38.4764 9.08386 38.2057 9.79929C37.9349 10.4872 37.8807 11.7368 37.8807 12.7824H53.415V17.2121H37.8708C37.8708 18.1477 38.0026 19.2787 38.2463 19.9941C38.49 20.682 38.9232 21.3974 39.546 22.1404C40.1959 22.8833 40.8593 23.4474 41.5362 23.8326C42.2402 24.2179 43.0661 24.5427 44.0138 24.5427H56.483V29.4047Z" fill="#2D5BFF"/>
<path d="M85.3492 29.4047H78.2414L75.845 22.8008H64.1069L61.548 29.4047H54.5214L66.1783 0.512512H73.1237L85.3492 29.4047ZM73.6517 17.7653L69.7932 7.61174L66.0564 17.7653H73.6517Z" fill="#2D5BFF"/>
<path d="M119.636 29.4047H113.503V7.32282L105.461 29.4047H98.1504L89.8646 6.82752V29.4047H83.9346V0.512512H93.4389L101.765 23.3786L109.767 0.512512H119.636V29.4047Z" fill="#2D5BFF"/>
<path d="M146.789 29.4873L136.998 29.4047C133.992 29.4047 131.582 29.0607 129.768 28.3728C127.466 27.4923 125.815 25.9789 124.813 23.8326C124.434 23.0072 124.163 22.2229 124 21.48C123.865 20.7095 123.797 19.829 123.797 18.8384V0.512512H131.108V18.5908C131.108 19.4163 131.203 20.1454 131.393 20.7783C131.582 21.3837 131.921 21.989 132.408 22.5944C133.085 23.4749 133.87 24.0528 134.764 24.3279C135.657 24.6031 136.795 24.7407 138.176 24.7407H146.789V29.4873Z" fill="#2D5BFF"/>
<path d="M166 0.512512L153.491 17.2287V29.4873H146.789V17.2287L134.441 0.512512H142.687L150.079 12.0281L157.593 0.512512H166Z" fill="#2D5BFF"/>
</svg>
