<svg width="442" height="327" viewBox="0 0 442 327" fill="none" xmlns="http://www.w3.org/2000/svg">
<path fill-rule="evenodd" clip-rule="evenodd" d="M26.4622 0C11.8475 0 0 11.8475 0 26.4622V249.737C0 264.351 11.8475 276.199 26.4622 276.199H414.658C429.273 276.199 441.12 264.351 441.12 249.737V26.4622C441.12 11.8475 429.273 0 414.658 0H26.4622ZM166.695 299.765C159.387 299.765 153.464 305.689 153.464 312.996C153.464 320.303 159.387 326.227 166.695 326.227H274.204C281.511 326.227 287.435 320.303 287.435 312.996C287.435 305.689 281.511 299.765 274.204 299.765H166.695Z" fill="#01449F"/>
<path fill-rule="evenodd" clip-rule="evenodd" d="M26.4622 0C11.8475 0 0 11.8475 0 26.4622V249.737C0 264.351 11.8475 276.199 26.4622 276.199H414.658C429.273 276.199 441.12 264.351 441.12 249.737V26.4622C441.12 11.8475 429.273 0 414.658 0H26.4622ZM166.695 299.765C159.387 299.765 153.464 305.689 153.464 312.996C153.464 320.303 159.387 326.227 166.695 326.227H274.204C281.511 326.227 287.435 320.303 287.435 312.996C287.435 305.689 281.511 299.765 274.204 299.765H166.695Z" fill="url(#paint0_linear_759_26)"/>
<path fill-rule="evenodd" clip-rule="evenodd" d="M293.468 73.5306C296.861 69.9999 296.75 64.3869 293.219 60.9937C289.688 57.6004 284.075 57.7118 280.682 61.2425L163.073 183.615V87.4119L196.063 123.953C199.345 127.588 204.951 127.874 208.586 124.593C212.221 121.311 212.507 115.704 209.226 112.069L164.65 62.6951C157.848 55.1618 145.339 59.973 145.339 70.1224V200.132C145.339 210.112 157.498 215.008 164.414 207.812L293.468 73.5306ZM295.942 114.143C295.942 109.246 291.972 105.276 287.075 105.276C282.178 105.276 278.208 109.246 278.208 114.143V202.946C278.208 207.843 282.178 211.813 287.075 211.813C291.972 211.813 295.942 207.843 295.942 202.946V114.143ZM103.077 83.0579C107.974 83.0579 111.944 87.0277 111.944 91.9247V177.701C111.944 182.598 107.974 186.567 103.077 186.567C98.1801 186.567 94.2103 182.598 94.2103 177.701V91.9247C94.2103 87.0277 98.1801 83.0579 103.077 83.0579ZM341.904 83.0579C346.801 83.0579 350.771 87.0277 350.771 91.9247V177.701C350.771 182.598 346.801 186.567 341.904 186.567C337.007 186.567 333.037 182.598 333.037 177.701V91.9247C333.037 87.0277 337.007 83.0579 341.904 83.0579ZM54.0871 114.798C54.0871 109.901 50.1173 105.931 45.2204 105.931C40.3234 105.931 36.3536 109.901 36.3536 114.798V155.163C36.3536 160.06 40.3234 164.03 45.2204 164.03C50.1173 164.03 54.0871 160.06 54.0871 155.163V114.798ZM395.724 105.931C400.621 105.931 404.591 109.901 404.591 114.798V155.163C404.591 160.06 400.621 164.03 395.724 164.03C390.827 164.03 386.858 160.06 386.858 155.163V114.798C386.858 109.901 390.827 105.931 395.724 105.931Z" fill="white"/>
<defs>
<linearGradient id="paint0_linear_759_26" x1="338.306" y1="89.4886" x2="183.526" y2="279.369" gradientUnits="userSpaceOnUse">
<stop stop-color="#02DFCA"/>
<stop offset="1" stop-color="#01449F"/>
</linearGradient>
</defs>
</svg>
