<svg xmlns="http://www.w3.org/2000/svg" viewBox="0 0 176 162.29"><defs><style> .cls-2 { fill: #29c44a; } .cls-3 { fill: #e5341e; } .cls-4 { fill: #fee121; } </style></defs><g><path class="cls-3" d="M134.97,1.18c-2.44-1.57-5.56-1.54-8.08-.09l-35.21,20.3c-2.53,1.46-5.64,1.46-8.17,0L48.31,1.09c-2.52-1.45-5.63-1.48-8.08.09-11.72,7.54-21.5,17.77-28.51,29.86l71.79,41.4c2.53,1.46,5.64,1.46,8.17,0l71.79-41.4c-7.01-12.09-16.79-22.32-28.51-29.86Z"></path><path class="cls-2" d="M87.31,162.29c.05,0,.1,0,.16,0h-.7c.18,0,.37,0,.55,0Z"></path><path class="cls-4" d="M77.18,83.37L6.19,42.43C2.09,52.72-.01,63.71,0,74.79c0,23.21,9.23,45.46,25.66,61.87,14.93,14.91,34.69,23.89,55.62,25.4v-71.61c0-2.92-1.56-5.62-4.09-7.08Z"></path><path class="cls-2" d="M87.89,162.29c.18,0,.37,0,.55,0h-.7c.05,0,.1,0,.15,0Z"></path><path class="cls-2" d="M169.01,42.43l-70.99,40.94c-2.53,1.46-4.09,4.16-4.09,7.08v71.61c20.92-1.51,40.68-10.49,55.62-25.4,16.43-16.41,25.66-38.66,25.67-61.87.01-11.08-2.09-22.07-6.2-32.36Z"></path></g></svg>
