<svg width="46" height="44" xmlns="http://www.w3.org/2000/svg" xmlns:xlink="http://www.w3.org/1999/xlink" xml:space="preserve" overflow="hidden"><defs><clipPath id="clip0"><rect x="447" y="661" width="44" height="43"/></clipPath><clipPath id="clip1"><rect x="447" y="661" width="44" height="43"/></clipPath><clipPath id="clip2"><rect x="447" y="661" width="44" height="43"/></clipPath></defs><g transform="translate(-446 -660)"><g><g clip-path="url(#clip0)"><g clip-path="url(#clip1)"><g clip-path="url(#clip2)"><path d="M21.5 0C33.3741-3.18264e-15 43 9.62588 43 21.5L43 21.5C43 33.3741 33.3741 43 21.5 43 9.62588 43 0 33.3741 0 21.5-3.18264e-15 9.62588 9.62588 0 21.5 0Z" fill="#5282FF" fill-rule="nonzero" fill-opacity="1" transform="matrix(1.02326 0 0 1 447 661)"/><path d="M18.8112 30.9062 18.8112 25.5312 24.1862 25.5312 24.1862 30.9062 18.8112 30.9062ZM18.8098 24.1875 18.8098 18.8125 24.1848 18.8125 24.1848 24.1875 18.8098 24.1875ZM12.0938 17.4688 12.0938 12.0938 17.4688 12.0938 17.4688 17.4688 12.0938 17.4688ZM18.8098 17.4688 18.8098 12.0938 24.1848 12.0938 24.1848 17.4688 18.8098 17.4688ZM25.5286 17.4688 25.5286 12.0938 30.9062 12.0938 30.9062 17.4688 25.5286 17.4688Z" fill="#FFFFFF" fill-rule="evenodd" fill-opacity="1" transform="matrix(1.02326 0 0 1 447 661)"/></g></g></g></g></g></svg>