<svg width="26" height="27" xmlns="http://www.w3.org/2000/svg" xmlns:xlink="http://www.w3.org/1999/xlink" xml:space="preserve" overflow="hidden"><g transform="translate(250 -197)"><g><g><g><g><path d="M-243.145 220.499C-243.146 220.508-243.146 219.715-243.146 218.914L-243.146 212.378C-243.146 211.576-243.644 210.147-244.142 209.519L-249.614 202.618C-250.112 201.99-249.952 200.905-249.294 200.448L-246.976 198.837C-246.318 198.38-245.189 198.571-244.717 199.218L-240.96 204.38C-240.488 205.028-239.55 205.024-239.083 204.373L-235.222 198.98C-234.755 198.329-233.598 198.084-232.908 198.491L-230.943 199.648C-230.252 200.055-230.046 201.1-230.53 201.739L-236.129 209.121C-236.613 209.76-237.098 211.199-237.099 212.001L-237.106 218.88C-237.106 219.681-237.909 220.483-238.71 220.483L-241.542 220.483C-242.343 220.483-243.145 220.491-243.145 220.499Z" fill="#BD1622" fill-rule="nonzero" fill-opacity="1"/><path d="M-230.169 223.92C-230.176 223.92-230.918 223.928-231.64 223.807-232.41 223.678-233.081 223.439-233.654 223.091-234.565 222.537-235.237 221.722-235.672 220.645-236.106 219.567-236.324 218.257-236.324 216.713L-236.324 211.986C-236.324 211.172-235.592 210.359-234.861 210.359L-233.704 210.359C-232.973 210.359-232.248 211.172-232.254 211.985L-232.28 215.161C-232.286 215.974-232.305 217.125-232.303 217.462-232.303 217.553-232.3 217.646-232.291 217.758-232.273 217.963-232.329 219.118-231.836 219.695-231.813 219.722-231.789 219.748-231.763 219.773-231.723 219.812-231.055 220.37-230.337 220.418-230.267 220.422-230.193 220.425-230.115 220.425-229.367 220.425-228.774 220.243-228.38 219.879-228.315 219.819-228.258 219.747-228.208 219.666-227.797 219.004-227.821 217.726-227.807 217.344-227.804 217.257-227.803 217.175-227.802 217.077-227.801 216.895-227.817 215.899-227.833 215.086L-227.897 211.863C-227.913 211.05-227.198 210.237-226.467 210.237L-225.538 210.237C-224.807 210.237-224.076 211.05-224.076 211.863L-224.076 216.712C-224.076 217.57-224.143 218.357-224.278 219.074-224.428 219.868-225.015 221.383-225.495 221.993-225.517 222.021-225.539 222.048-225.561 222.075-226.053 222.673-227.356 223.469-228.063 223.663-228.266 223.719-228.478 223.766-228.698 223.804-229.421 223.927-230.163 223.919-230.169 223.92Z" fill="#009540" fill-rule="nonzero" fill-opacity="1"/></g></g></g></g></g></svg>